<svg width="360" height="720" viewBox="0 0 360 720" fill="none" xmlns="http://www.w3.org/2000/svg">
  <rect width="360" height="720" fill="#222326"/>
  <rect y="60" width="360" height="660" rx="24" fill="#18191C"/>
  <text x="24" y="48" fill="#fff" font-size="22" font-family="sans-serif" font-weight="bold">정산내역상세</text>
  <text x="24" y="100" fill="#B0B0B0" font-size="16" font-family="sans-serif">2025.2.19 - 2025.2.25</text>
  <text x="24" y="140" fill="#B0B0B0" font-size="14" font-family="sans-serif">최종지급금액</text>
  <text x="24" y="170" fill="#1CC8B7" font-size="32" font-family="sans-serif" font-weight="bold">97,189원</text>
  <text x="24" y="200" fill="#B0B0B0" font-size="14" font-family="sans-serif">지급일</text>
  <text x="80" y="200" fill="#fff" font-size="14" font-family="sans-serif">2월 28일</text>
  <text x="24" y="220" fill="#B0B0B0" font-size="14" font-family="sans-serif">총 배달건</text>
  <text x="100" y="220" fill="#fff" font-size="14" font-family="sans-serif">21건</text>
  <text x="24" y="240" fill="#B0B0B0" font-size="14" font-family="sans-serif">배달료 합계</text>
  <text x="110" y="240" fill="#fff" font-size="14" font-family="sans-serif">86,340원</text>
  <rect x="24" y="270" width="312" height="2" fill="#333"/>
  <text x="24" y="300" fill="#B0B0B0" font-size="15" font-family="sans-serif">일별 배달 내역</text>
  <rect x="24" y="320" width="312" height="48" rx="8" fill="#232323"/>
  <text x="36" y="350" fill="#fff" font-size="16" font-family="sans-serif">2025.2.19</text>
  <text x="160" y="350" fill="#1CC8B7" font-size="16" font-family="sans-serif" font-weight="bold">54,800원</text>
  <text x="280" y="350" fill="#fff" font-size="16" font-family="sans-serif">13건</text>
  <rect x="24" y="380" width="312" height="48" rx="8" fill="#232323"/>
  <text x="36" y="410" fill="#fff" font-size="16" font-family="sans-serif">2025.2.21</text>
  <text x="160" y="410" fill="#1CC8B7" font-size="16" font-family="sans-serif" font-weight="bold">31,540원</text>
  <text x="280" y="410" fill="#fff" font-size="16" font-family="sans-serif">8건</text>
  <rect x="24" y="480" width="312" height="60" rx="8" fill="#444"/>
  <text x="36" y="510" fill="#fff" font-size="14" font-family="sans-serif" font-weight="bold">스크린 캡처가 감지되었습니다.</text>
  <text x="36" y="530" fill="#B0B0B0" font-size="12" font-family="sans-serif">개인정보가 포함된 캡처를 공유할 경우 불이익을 받을 수 있습니다.</text>
</svg> 