<svg width="360" height="720" viewBox="0 0 360 720" fill="none" xmlns="http://www.w3.org/2000/svg">
  <rect width="360" height="720" fill="#F5F5F5"/>
  <rect y="0" width="360" height="56" fill="#fff"/>
  <text x="24" y="36" fill="#000" font-size="20" font-family="sans-serif" font-weight="bold">12/25 수</text>
  <text x="320" y="36" fill="#666" font-size="14" font-family="sans-serif" text-anchor="end">오늘</text>
  
  <!-- 메인 카드 -->
  <rect x="16" y="72" width="328" height="160" rx="12" fill="#fff"/>
  <text x="32" y="104" fill="#999" font-size="14" font-family="sans-serif">총 배달 수수료</text>
  <text x="32" y="140" fill="#000" font-size="32" font-family="sans-serif" font-weight="bold">87,540원</text>
  <text x="32" y="170" fill="#666" font-size="16" font-family="sans-serif">배달 24건</text>
  <text x="32" y="210" fill="#999" font-size="12" font-family="sans-serif">23:45 업데이트</text>
  
  <!-- 세부 내역 헤더 -->
  <text x="24" y="264" fill="#000" font-size="16" font-family="sans-serif" font-weight="bold">배달 내역</text>
  
  <!-- 배달 건 1 -->
  <rect x="16" y="280" width="328" height="80" rx="8" fill="#fff"/>
  <text x="28" y="312" fill="#000" font-size="14" font-family="sans-serif" font-weight="500">치킨플러스 강남점</text>
  <text x="28" y="332" fill="#666" font-size="12" font-family="sans-serif">배달 완료 22:14 | 배달 거리 2.3km</text>
  <text x="280" y="312" fill="#000" font-size="16" font-family="sans-serif" font-weight="bold">4,200원</text>
  
  <!-- 배달 건 2 -->
  <rect x="16" y="368" width="328" height="80" rx="8" fill="#fff"/>
  <text x="28" y="400" fill="#000" font-size="14" font-family="sans-serif" font-weight="500">버거킹 역삼점</text>
  <text x="28" y="420" fill="#666" font-size="12" font-family="sans-serif">배달 완료 21:47 | 배달 거리 1.8km</text>
  <text x="280" y="400" fill="#000" font-size="16" font-family="sans-serif" font-weight="bold">3,800원</text>
  
  <!-- 배달 건 3 -->
  <rect x="16" y="456" width="328" height="80" rx="8" fill="#fff"/>
  <text x="28" y="488" fill="#000" font-size="14" font-family="sans-serif" font-weight="500">스타벅스 강남역점</text>
  <text x="28" y="508" fill="#666" font-size="12" font-family="sans-serif">배달 완료 20:35 | 배달 거리 0.9km</text>
  <text x="280" y="488" fill="#000" font-size="16" font-family="sans-serif" font-weight="bold">3,200원</text>
  
  <!-- 더보기 표시 -->
  <text x="180" y="570" fill="#999" font-size="14" font-family="sans-serif" text-anchor="middle">... 21건 더보기</text>
</svg> 