<svg width="360" height="720" viewBox="0 0 360 720" fill="none" xmlns="http://www.w3.org/2000/svg">
  <rect width="360" height="720" fill="#231F47"/>
  <text x="24" y="48" fill="#fff" font-size="22" font-family="sans-serif" font-weight="bold">내 수입</text>
  <text x="24" y="100" fill="#fff" font-size="20" font-family="sans-serif" font-weight="bold">5/28 ~ 6/3</text>
  <rect x="24" y="120" width="312" height="100" rx="16" fill="#fff"/>
  <text x="40" y="150" fill="#888" font-size="14" font-family="sans-serif">21:34 업데이트</text>
  <text x="40" y="185" fill="#000" font-size="32" font-family="sans-serif" font-weight="bold">680,126원</text>
  <text x="40" y="210" fill="#231F47" font-size="18" font-family="sans-serif" font-weight="bold">배달 170건</text>
  <rect x="24" y="230" width="312" height="36" rx="8" fill="#F8F8F8"/>
  <text x="40" y="255" fill="#888" font-size="14" font-family="sans-serif">자세히 보기</text>
  <rect x="24" y="280" width="312" height="48" rx="8" fill="#FFF7E0"/>
  <text x="36" y="310" fill="#B89A3A" font-size="12" font-family="sans-serif">이츠플러스 협력사에서 제공하는 수입이며, 항목별 금액은 참고사항입니다. 실제 지급액은 합계 금액이며, 수수료는 협력사에 문의해 주시기 바랍니다.</text>
  <text x="24" y="350" fill="#fff" font-size="16" font-family="sans-serif" font-weight="bold">일별 배달 수수료</text>
  <rect x="24" y="370" width="312" height="40" rx="8" fill="#fff"/>
  <text x="36" y="395" fill="#231F47" font-size="15" font-family="sans-serif">05/29 목  배달 17건</text>
  <text x="250" y="395" fill="#231F47" font-size="15" font-family="sans-serif" font-weight="bold">53,920원</text>
  <rect x="24" y="420" width="312" height="40" rx="8" fill="#fff"/>
  <text x="36" y="445" fill="#231F47" font-size="15" font-family="sans-serif">05/30 금  배달 41건</text>
  <text x="250" y="445" fill="#231F47" font-size="15" font-family="sans-serif" font-weight="bold">148,739원</text>
  <rect x="24" y="470" width="312" height="40" rx="8" fill="#fff"/>
  <text x="36" y="495" fill="#231F47" font-size="15" font-family="sans-serif">05/31 토  배달 47건</text>
  <text x="250" y="495" fill="#231F47" font-size="15" font-family="sans-serif" font-weight="bold">179,244원</text>
  <rect x="24" y="520" width="312" height="40" rx="8" fill="#fff"/>
  <text x="36" y="545" fill="#231F47" font-size="15" font-family="sans-serif">06/01 일  배달 34건</text>
  <text x="250" y="545" fill="#231F47" font-size="15" font-family="sans-serif" font-weight="bold">150,373원</text>
  <rect x="24" y="570" width="312" height="40" rx="8" fill="#fff"/>
  <text x="36" y="595" fill="#231F47" font-size="15" font-family="sans-serif">06/02 월  배달 9건</text>
  <text x="250" y="595" fill="#231F47" font-size="15" font-family="sans-serif" font-weight="bold">40,770원</text>
  <rect x="24" y="620" width="312" height="40" rx="8" fill="#fff"/>
  <text x="36" y="645" fill="#231F47" font-size="15" font-family="sans-serif">06/03 화  배달 22건</text>
  <text x="250" y="645" fill="#231F47" font-size="15" font-family="sans-serif" font-weight="bold">97,080원</text>
</svg> 